<!-- Design by Lights Thing © 2021. Todos los derechos reservados -->
<svg xmlns="http://www.w3.org/2000/svg" xmlns:xlink="http://www.w3.org/1999/xlink" width="1540" height="1436" viewBox="0 0 1540 1436">
  <title>GPIO NodeMCU ESP8266</title>
  <desc>GPIO | Pinout sobre las conexiones del modulo NodeMCU ESP8266 v3</desc>
  <defs>
  </defs>
  <g>
    <rect width="1540" height="1436" fill="#fff"/>
    <line x2="1283" transform="translate(143.5 245.5)" fill="none" stroke="#214f62" stroke-width="8"/>
    <line x2="994" transform="translate(185.5 309.5)" fill="none" stroke="#214f62" stroke-width="8"/>
    <line x2="973" transform="translate(197.5 373.5)" fill="none" stroke="#214f62" stroke-width="8"/>
    <line x2="1222" transform="translate(143.5 441.5)" fill="none" stroke="#214f62" stroke-width="8"/>
    <line x2="1215" transform="translate(143.5 507.5)" fill="none" stroke="#214f62" stroke-width="8"/>
    <line x2="1036" transform="translate(143.5 568.5)" fill="none" stroke="#214f62" stroke-width="8"/>
    <line x2="1049" transform="translate(143.5 634.5)" fill="none" stroke="#214f62" stroke-width="8"/>
    <line x2="1283" transform="translate(143.5 701.5)" fill="none" stroke="#214f62" stroke-width="8"/>
    <line x2="1283" transform="translate(143.5 766.5)" fill="none" stroke="#214f62" stroke-width="8"/>
    <line x2="1242" transform="translate(184.5 829.5)" fill="none" stroke="#214f62" stroke-width="8"/>
    <line x2="1222" transform="translate(204.5 895.5)" fill="none" stroke="#214f62" stroke-width="8"/>
    <line x2="1161" transform="translate(204.5 965.5)" fill="none" stroke="#214f62" stroke-width="8"/>
    <line x2="1174" transform="translate(191.5 1027.5)" fill="none" stroke="#214f62" stroke-width="8"/>
    <line x2="972" transform="translate(204.5 1092.5)" fill="none" stroke="#214f62" stroke-width="8"/>
    <line x2="919" transform="translate(237.5 1155.5)" fill="none" stroke="#214f62" stroke-width="8"/>
    <rect width="161" height="53" rx="10"  transform="translate(1031 218)" fill="#fdffce" stroke="#2d7189" stroke-width="4"/>
    <rect width="161" height="53" rx="10"  transform="translate(1208 218)" fill="#8ed054" stroke="#2d7189" stroke-width="4"/>
    <rect width="161" height="53" rx="10"  transform="translate(1031 283)" fill="#fdffce" stroke="#2d7189" stroke-width="4"/>
    <rect width="161" height="53" rx="10"  transform="translate(1031 348)" fill="#fdffce" stroke="#2d7189" stroke-width="4"/>
    <rect width="161" height="53" rx="10"  transform="translate(1031 413)" fill="#fdffce" stroke="#2d7189" stroke-width="4"/>
    <rect width="161" height="53" rx="10"  transform="translate(1208 413)" fill="#8ed054" stroke="#2d7189" stroke-width="4"/>
    <rect width="161" height="53" rx="10"  transform="translate(1031 478)" fill="#fdffce" stroke="#2d7189" stroke-width="4"/>
    <rect width="161" height="53" rx="10"  transform="translate(1208 478)" fill="#b5dff2" stroke="#2d7189" stroke-width="4"/>
    <rect width="161" height="53" rx="10"  transform="translate(1031 543)" fill="#c82037" stroke="#2d7189" stroke-width="4"/>
    <rect width="161" height="53" rx="10"  transform="translate(1031 608)" fill="#15161a" stroke="#2d7189" stroke-width="4"/>
    <rect width="161" height="53" rx="10"  transform="translate(1031 673)" fill="#fdffce" stroke="#2d7189" stroke-width="4"/>
    <rect width="161" height="53" rx="10"  transform="translate(1031 738)" fill="#fdffce" stroke="#2d7189" stroke-width="4"/>
    <rect width="161" height="53" rx="10"  transform="translate(1031 803)" fill="#fdffce" stroke="#2d7189" stroke-width="4"/>
    <rect width="161" height="53" rx="10"  transform="translate(1208 803)" fill="#b5dff2" stroke="#2d7189" stroke-width="4"/>
    <rect width="161" height="53" rx="10"  transform="translate(1031 868)" fill="#fdffce" stroke="#2d7189" stroke-width="4"/>
    <rect width="161" height="53" rx="10"  transform="translate(1208 868)" fill="#b5dff2" stroke="#2d7189" stroke-width="4"/>
    <rect width="161" height="53" rx="10"  transform="translate(1031 933)" fill="#fdffce" stroke="#2d7189" stroke-width="4"/>
    <rect width="161" height="53" rx="10"  transform="translate(1208 933)" fill="#b5dff2" stroke="#2d7189" stroke-width="4"/>
    <rect width="161" height="53" rx="10"  transform="translate(1031 998)" fill="#fdffce" stroke="#2d7189" stroke-width="4"/>
    <rect width="161" height="53" rx="10"  transform="translate(1208 998)" fill="#b5dff2" stroke="#2d7189" stroke-width="4"/>
    <rect width="161" height="53" rx="10"  transform="translate(1031 1063)" fill="#15161a" stroke="#2d7189" stroke-width="4"/>
    <rect width="161" height="53" rx="10"  transform="translate(1031 1128)" fill="#c82037" stroke="#2d7189" stroke-width="4"/>
    <rect width="161" height="53" rx="10"  transform="translate(180 218)" fill="#9634fe" stroke="#2d7189" stroke-width="4"/>
    <rect width="161" height="53" rx="10"  transform="translate(180 283)" fill="#ca9af6" stroke="#2d7189" stroke-width="4"/>
    <rect width="161" height="53" rx="10"  transform="translate(180 348)" fill="#ca9af6" stroke="#2d7189" stroke-width="4"/>
    <rect width="161" height="53" rx="10"  transform="translate(180 413)" fill="#fdffce" stroke="#2d7189" stroke-width="4"/>
    <rect width="161" height="53" rx="10"  transform="translate(180 478)" fill="#fdffce" stroke="#2d7189" stroke-width="4"/>
    <rect width="161" height="53" rx="10"  transform="translate(180 543)" fill="#99f141" stroke="#2d7189" stroke-width="4"/>
    <rect width="161" height="53" rx="10"  transform="translate(180 608)" fill="#99f141" stroke="#2d7189" stroke-width="4"/>
    <rect width="161" height="53" rx="10"  transform="translate(180 673)" fill="#99f141" stroke="#2d7189" stroke-width="4"/>
    <rect width="161" height="53" rx="10"  transform="translate(180 738)" fill="#99f141" stroke="#2d7189" stroke-width="4"/>
    <rect width="161" height="53" rx="10"  transform="translate(180 803)" fill="#15161a" stroke="#2d7189" stroke-width="4"/>
    <rect width="161" height="53" rx="10"  transform="translate(180 868)" fill="#c52039" stroke="#2d7189" stroke-width="4"/>
    <rect width="161" height="53" rx="10"  transform="translate(180 933)" fill="#fecc64" stroke="#2d7189" stroke-width="4"/>
    <rect width="161" height="53" rx="10"  transform="translate(180 998)" fill="#fecc64" stroke="#2d7189" stroke-width="4"/>
    <rect width="161" height="53" rx="10"  transform="translate(180 1063)" fill="#15161a" stroke="#2d7189" stroke-width="4"/>
    <rect width="161" height="53" rx="10"  transform="translate(180 1128)" fill="#fcfe04" stroke="#2d7189" stroke-width="4"/>
    <rect width="153" height="53" rx="10"  transform="translate(1387 673)" fill="#8ed054" stroke="#2d7189" stroke-width="4"/>
    <rect width="153" height="53" rx="10"  transform="translate(1387 738)" fill="#8ed054" stroke="#2d7189" stroke-width="4"/>
    <rect width="153" height="53" rx="10"  transform="translate(1387 803)" fill="#8ed054" stroke="#2d7189" stroke-width="4"/>
    <rect width="153" height="53" rx="10"  transform="translate(1387 868)" fill="#8ed054" stroke="#2d7189" stroke-width="4"/>
    <rect width="153" height="53" rx="10"  transform="translate(1387 218)" fill="#fdcc64" stroke="#2d7189" stroke-width="4"/>
    <rect width="151" height="53" rx="10"  transform="translate(0 413)" fill="#fb6903" stroke="#2d7189" stroke-width="4"/>
    <rect width="151" height="53" rx="10"  transform="translate(0 478)" fill="#fb6903" stroke="#2d7189" stroke-width="4"/>
    <rect width="151" height="53" rx="10"  transform="translate(0 543)" fill="#fb6903" stroke="#2d7189" stroke-width="4"/>
    <rect width="151" height="53" rx="10"  transform="translate(0 608)" fill="#fb6903" stroke="#2d7189" stroke-width="4"/>
    <rect width="151" height="53" rx="10"  transform="translate(0 673)" fill="#fb6903" stroke="#2d7189" stroke-width="4"/>
    <rect width="151" height="53" rx="10"  transform="translate(0 738)" fill="#fb6903" stroke="#2d7189" stroke-width="4"/>
    <rect width="151" height="53" rx="10"  transform="translate(0 218)" fill="#ffd56e" stroke="#2d7189" stroke-width="4"/>
    <text transform="translate(1047 258)" font-size="34" font-family="-webkit-pictograph">GPIO16</text>
    <text transform="translate(1058 323)" font-size="34" font-family="-webkit-pictograph">GPIO5</text>
    <text transform="translate(1057 388)" font-size="34" font-family="-webkit-pictograph">GPIO4</text>
    <text transform="translate(1061 453)" font-size="34" font-family="-webkit-pictograph">GPI00</text>
    <text transform="translate(1060 518)" font-size="34" font-family="-webkit-pictograph">GPIO2</text>
    <text transform="translate(1080 583)" fill="#fff" font-size="34" font-family="-webkit-pictograph">3.3V</text>
    <text transform="translate(1074 648)" fill="#fff" font-size="34" font-family="-webkit-pictograph">GND</text>
    <text transform="translate(1047 713)" font-size="34" font-family="-webkit-pictograph">GPIO14</text>
    <text transform="translate(1048 778)" font-size="34" font-family="-webkit-pictograph">GPIO12</text>
    <text transform="translate(1046 843)" font-size="34" font-family="-webkit-pictograph">GPIO13</text>
    <text transform="translate(1047 908)" font-size="34" font-family="-webkit-pictograph">GPIO15</text>
    <text transform="translate(1052 973)" font-size="34" font-family="-webkit-pictograph">GPIO3</text>
    <text transform="translate(1055 1038)" font-size="34" font-family="-webkit-pictograph">GPIO1</text>
    <text transform="translate(1070 1103)" fill="#fff" font-size="34" font-family="-webkit-pictograph">GND</text>
    <text transform="translate(1068 1168)" fill="#fff" font-size="34" font-family="-webkit-pictograph">3.3V</text>
    <text transform="translate(1244 843)" font-size="34" font-family="-webkit-pictograph">RDX2</text>
    <text transform="translate(1244 906)" font-size="34" font-family="-webkit-pictograph">TXD2</text>
    <text transform="translate(1243 971)" font-size="34" font-family="-webkit-pictograph">RDX0</text>
    <text transform="translate(1242 1036)" font-size="34" font-family="-webkit-pictograph">TXD0</text>
    <text transform="translate(1243 518)" font-size="34" font-family="-webkit-pictograph">TXD1</text>
    <text transform="translate(1226 453)" font-size="34" font-family="-webkit-pictograph">FLASH</text>
    <text transform="translate(1236 258)" font-size="34" font-family="-webkit-pictograph">USER</text>
    <text transform="translate(1409 258)" font-size="34" font-family="-webkit-pictograph">WAKE</text>
    <text transform="translate(1406 843)" font-size="34" font-family="-webkit-pictograph">HMOSI</text>
    <text transform="translate(1426 908)" font-size="34" font-family="-webkit-pictograph">HCS</text>
    <text transform="translate(1406 778)" font-size="34" font-family="-webkit-pictograph">HMISO</text>
    <text transform="translate(1404 712)" font-size="34" font-family="-webkit-pictograph">HSCLK</text>
    <text transform="translate(212 258)" font-size="34" font-family="-webkit-pictograph">ADC0</text>
    <text transform="translate(191 320)" font-size="27" font-family="-webkit-pictograph">RESERVED</text>
    <text transform="translate(191 384)" font-size="27" font-family="-webkit-pictograph">RESERVED</text>
    <text transform="translate(196 453)" font-size="34" font-family="-webkit-pictograph">GPIO10</text>
    <text transform="translate(205 518)" font-size="34" font-family="-webkit-pictograph">GPIO9</text>
    <text transform="translate(216 583)" font-size="34" font-family="-webkit-pictograph">MOSI</text>
    <text transform="translate(238 648)" font-size="34" font-family="-webkit-pictograph">CS</text>
    <text transform="translate(213 713)" font-size="34" font-family="-webkit-pictograph">MISO</text>
    <text transform="translate(215 778)" font-size="34" font-family="-webkit-pictograph">SCLK</text>
    <text transform="translate(226 843)" fill="#fff" font-size="34" font-family="-webkit-pictograph">GND</text>
    <text transform="translate(227 908)" fill="#fff" font-size="34" font-family="-webkit-pictograph">3.3V</text>
    <text transform="translate(241 973)" font-size="34" font-family="-webkit-pictograph">EN</text>
    <text transform="translate(231 1038)" font-size="34" font-family="-webkit-pictograph">RST</text>
    <text transform="translate(227 1103)" fill="#fff" font-size="34" font-family="-webkit-pictograph">GND</text>
    <text transform="translate(238 1168)" font-size="34" font-family="-webkit-pictograph">Vin</text>
    <text transform="translate(30 453)" fill="#fff" font-size="34" font-family="-webkit-pictograph">SDD3</text>
    <text transform="translate(30 518)" fill="#fff" font-size="34" font-family="-webkit-pictograph">SDD2</text>
    <text transform="translate(28 583)" fill="#fff" font-size="34" font-family="-webkit-pictograph">SDD1</text>
    <text transform="translate(14 648)" fill="#fff" font-size="34" font-family="-webkit-pictograph">SDCMD</text>
    <text transform="translate(30 713)" fill="#fff" font-size="34" font-family="-webkit-pictograph">SDD0</text>
    <text transform="translate(24 776)" fill="#fff" font-size="34" font-family="-webkit-pictograph">SDCLK</text>
    <text transform="translate(29 258)" font-size="34" font-family="-webkit-pictograph">TOUT</text>
    <path d="M1189.792,2.895H45.04A45.665,45.665,0,0,0-.154,49.027V612.761a45.667,45.667,0,0,0,45.193,46.13H1189.792a45.691,45.691,0,0,0,45.219-46.117V49.02a45.679,45.679,0,0,0-45.219-46.129ZM58.852,19.473A38.77,38.77,0,0,1,94.887,43.416a39.369,39.369,0,0,1-8.22,42.729,38.53,38.53,0,0,1-42.294,8.612A39.172,39.172,0,0,1,58.854,19.473Zm0,624.886a38.786,38.786,0,0,1-36.077-23.937,39.386,39.386,0,0,1,8.215-42.765,38.549,38.549,0,0,1,42.33-8.607,39.189,39.189,0,0,1-14.468,75.309Zm1120.1,0a38.786,38.786,0,0,1-36.074-23.94,39.387,39.387,0,0,1,8.219-42.763,38.549,38.549,0,0,1,42.33-8.605,39.189,39.189,0,0,1-14.474,75.308Zm0-546.64a38.77,38.77,0,0,1-36.043-23.933,39.369,39.369,0,0,1,8.209-42.734,38.53,38.53,0,0,1,42.3-8.619,39.172,39.172,0,0,1-14.47,75.291Z" transform="translate(1015.891 78.879) rotate(90)" fill="#241f1c"/>
    <path d="M483.42,837.813v34.1L500.4,888.2H533.6l16.68-16.286v-34.1L533.6,820.877H500.4Z" transform="translate(1246.131 -273.779) rotate(90)" fill="#454545"/>
    <path d="M483.42,837.813v34.1L500.4,888.2H533.6l16.68-16.286v-34.1L533.6,820.877H500.4Z" transform="translate(1246.131 -208.896) rotate(90)" fill="#454545"/>
    <path d="M483.42,837.813v34.1L500.4,888.2H533.6l16.68-16.286v-34.1L533.6,820.877H500.4Z" transform="translate(1246.131 -144.013) rotate(90)" fill="#454545"/>
    <path d="M483.42,837.813v34.1L500.4,888.2H533.6l16.68-16.286v-34.1L533.6,820.877H500.4Z" transform="translate(1246.131 -79.13) rotate(90)" fill="#454545"/>
    <path d="M483.42,837.813v34.1L500.4,888.2H533.6l16.68-16.286v-34.1L533.6,820.877H500.4Z" transform="translate(1246.131 -14.248) rotate(90)" fill="#454545"/>
    <path d="M483.42,837.813v34.1L500.4,888.2H533.6l16.68-16.286v-34.1L533.6,820.877H500.4Z" transform="translate(1246.131 50.635) rotate(90)" fill="#454545"/>
    <path d="M483.42,837.813v34.1L500.4,888.2H533.6l16.68-16.286v-34.1L533.6,820.877H500.4Z" transform="translate(1246.131 115.518) rotate(90)" fill="#454545"/>
    <path d="M483.42,837.813v34.1L500.4,888.2H533.6l16.68-16.286v-34.1L533.6,820.877H500.4Z" transform="translate(1246.131 180.401) rotate(90)" fill="#454545"/>
    <path d="M483.42,837.813v34.1L500.4,888.2H533.6l16.68-16.286v-34.1L533.6,820.877H500.4Z" transform="translate(1246.131 245.284) rotate(90)" fill="#454545"/>
    <path d="M483.42,837.813v34.1L500.4,888.2H533.6l16.68-16.286v-34.1L533.6,820.877H500.4Z" transform="translate(1246.131 310.167) rotate(90)" fill="#454545"/>
    <path d="M483.42,837.813v34.1L500.4,888.2H533.6l16.68-16.286v-34.1L533.6,820.877H500.4Z" transform="translate(1246.131 375.05) rotate(90)" fill="#454545"/>
    <path d="M483.42,837.813v34.1L500.4,888.2H533.6l16.68-16.286v-34.1L533.6,820.877H500.4Z" transform="translate(1246.131 439.933) rotate(90)" fill="#454545"/>
    <path d="M483.42,837.813v34.1L500.4,888.2H533.6l16.68-16.286v-34.1L533.6,820.877H500.4Z" transform="translate(1246.131 504.816) rotate(90)" fill="#454545"/>
    <path d="M483.42,837.813v34.1L500.4,888.2H533.6l16.68-16.286v-34.1L533.6,820.877H500.4Z" transform="translate(1246.131 569.698) rotate(90)" fill="#454545"/>
    <path d="M483.42,837.813v34.1L500.4,888.2H533.6l16.68-16.286v-34.1L533.6,820.877H500.4Z" transform="translate(1246.131 634.581) rotate(90)" fill="#454545"/>
    <path d="M483.42,837.813v34.1L500.4,888.2H533.6l16.68-16.286v-34.1L533.6,820.877H500.4Z" transform="translate(1830.168 -273.779) rotate(90)" fill="#454545"/>
    <path d="M483.42,837.813v34.1L500.4,888.2H533.6l16.68-16.286v-34.1L533.6,820.877H500.4Z" transform="translate(1830.168 -208.896) rotate(90)" fill="#454545"/>
    <path d="M483.42,837.813v34.1L500.4,888.2H533.6l16.68-16.286v-34.1L533.6,820.877H500.4Z" transform="translate(1830.168 -144.013) rotate(90)" fill="#454545"/>
    <path d="M483.42,837.813v34.1L500.4,888.2H533.6l16.68-16.286v-34.1L533.6,820.877H500.4Z" transform="translate(1830.168 -79.13) rotate(90)" fill="#454545"/>
    <path d="M483.42,837.813v34.1L500.4,888.2H533.6l16.68-16.286v-34.1L533.6,820.877H500.4Z" transform="translate(1830.168 -14.248) rotate(90)" fill="#454545"/>
    <path d="M483.42,837.813v34.1L500.4,888.2H533.6l16.68-16.286v-34.1L533.6,820.877H500.4Z" transform="translate(1830.168 50.635) rotate(90)" fill="#454545"/>
    <path d="M483.42,837.813v34.1L500.4,888.2H533.6l16.68-16.286v-34.1L533.6,820.877H500.4Z" transform="translate(1830.168 115.518) rotate(90)" fill="#454545"/>
    <path d="M483.42,837.813v34.1L500.4,888.2H533.6l16.68-16.286v-34.1L533.6,820.877H500.4Z" transform="translate(1830.168 180.401) rotate(90)" fill="#454545"/>
    <path d="M483.42,837.813v34.1L500.4,888.2H533.6l16.68-16.286v-34.1L533.6,820.877H500.4Z" transform="translate(1830.168 245.284) rotate(90)" fill="#454545"/>
    <path d="M483.42,837.813v34.1L500.4,888.2H533.6l16.68-16.286v-34.1L533.6,820.877H500.4Z" transform="translate(1830.168 310.167) rotate(90)" fill="#454545"/>
    <path d="M483.42,837.813v34.1L500.4,888.2H533.6l16.68-16.286v-34.1L533.6,820.877H500.4Z" transform="translate(1830.168 375.05) rotate(90)" fill="#454545"/>
    <path d="M483.42,837.813v34.1L500.4,888.2H533.6l16.68-16.286v-34.1L533.6,820.877H500.4Z" transform="translate(1830.168 439.933) rotate(90)" fill="#454545"/>
    <path d="M483.42,837.813v34.1L500.4,888.2H533.6l16.68-16.286v-34.1L533.6,820.877H500.4Z" transform="translate(1830.168 504.816) rotate(90)" fill="#454545"/>
    <path d="M483.42,837.813v34.1L500.4,888.2H533.6l16.68-16.286v-34.1L533.6,820.877H500.4Z" transform="translate(1830.168 569.698) rotate(90)" fill="#454545"/>
    <path d="M483.42,837.813v34.1L500.4,888.2H533.6l16.68-16.286v-34.1L533.6,820.877H500.4Z" transform="translate(1830.168 634.581) rotate(90)" fill="#454545"/>
    <rect width="11.85" height="15.065" transform="translate(400.095 237.257) rotate(90)" fill="#b68b2d"/>
    <rect width="11.85" height="15.065" transform="translate(400.095 302.287) rotate(90)" fill="#b68b2d"/>
    <rect width="11.85" height="15.065" transform="translate(400.095 367.317) rotate(90)" fill="#b68b2d"/>
    <rect width="11.85" height="15.065" transform="translate(400.095 432.354) rotate(90)" fill="#b68b2d"/>
    <rect width="11.85" height="15.065" transform="translate(400.095 497.374) rotate(90)" fill="#b68b2d"/>
    <rect width="11.85" height="15.065" transform="translate(400.095 562.402) rotate(90)" fill="#b68b2d"/>
    <rect width="11.85" height="15.065" transform="translate(400.095 627.441) rotate(90)" fill="#b68b2d"/>
    <rect width="11.85" height="15.065" transform="translate(400.095 692.471) rotate(90)" fill="#b68b2d"/>
    <rect width="11.85" height="15.065" transform="translate(400.095 757.498) rotate(90)" fill="#b68b2d"/>
    <rect width="11.85" height="15.065" transform="translate(400.095 822.528) rotate(90)" fill="#b68b2d"/>
    <rect width="11.85" height="15.065" transform="translate(400.095 887.549) rotate(90)" fill="#b68b2d"/>
    <rect width="11.85" height="15.065" transform="translate(400.095 952.586) rotate(90)" fill="#b68b2d"/>
    <rect width="11.85" height="15.065" transform="translate(400.095 1017.599) rotate(90)" fill="#b68b2d"/>
    <rect width="11.85" height="15.065" transform="translate(400.095 1082.665) rotate(90)" fill="#b68b2d"/>
    <rect width="11.85" height="15.065" transform="translate(400.095 1147.675) rotate(90)" fill="#b68b2d"/>
    <text transform="translate(911.034 230.854) rotate(90)" fill="#fff" font-size="22" font-family="-webkit-pictograph">D0</text>
    <text transform="translate(911.051 295.789) rotate(90)" fill="#fff" font-size="22" font-family="-webkit-pictograph">D1</text>
    <text transform="translate(911.051 359.913) rotate(90)" fill="#fff" font-size="22" font-family="-webkit-pictograph">D2</text>
    <text transform="translate(911.051 424.848) rotate(90)" fill="#fff" font-size="22" font-family="-webkit-pictograph">D3</text>
    <text transform="translate(911.051 488.879) rotate(90)" fill="#fff" font-size="22" font-family="-webkit-pictograph">D4</text>
    <text transform="translate(911.051 549.391) rotate(90)" fill="#fff" font-size="22" font-family="-webkit-pictograph">3V3</text>
    <text transform="translate(911.051 609.905) rotate(90)" fill="#fff" font-size="22" font-family="-webkit-pictograph">GND</text>
    <text transform="translate(911.034 684.157) rotate(90)" fill="#fff" font-size="22" font-family="-webkit-pictograph">D5</text>
    <text transform="translate(911.051 749.09) rotate(90)" fill="#fff" font-size="22" font-family="-webkit-pictograph">D6</text>
    <text transform="translate(911.034 814.119) rotate(90)" fill="#fff" font-size="22" font-family="-webkit-pictograph">D7</text>
    <text transform="translate(911.051 880.049) rotate(90)" fill="#fff" font-size="22" font-family="-webkit-pictograph">D8</text>
    <text transform="translate(911.034 945.175) rotate(90)" fill="#fff" font-size="22" font-family="-webkit-pictograph">RX</text>
    <text transform="translate(911.051 1008.301) rotate(90)" fill="#fff" font-size="22" font-family="-webkit-pictograph">TX</text>
    <text transform="translate(911.034 1064.299) rotate(90)" fill="#fff" font-size="22" font-family="-webkit-pictograph">GND</text>
    <text transform="translate(911.051 1131.848) rotate(90)" fill="#fff" font-size="22" font-family="-webkit-pictograph">3V3</text>
    <rect width="11.85" height="15.065" transform="translate(983.318 235.181) rotate(90)" fill="#b68b2d"/>
    <rect width="11.85" height="15.065" transform="translate(983.318 300.211) rotate(90)" fill="#b68b2d"/>
    <rect width="11.85" height="15.065" transform="translate(983.318 365.238) rotate(90)" fill="#b68b2d"/>
    <rect width="11.85" height="15.065" transform="translate(983.318 430.275) rotate(90)" fill="#b68b2d"/>
    <rect width="11.85" height="15.065" transform="translate(983.318 495.296) rotate(90)" fill="#b68b2d"/>
    <rect width="11.85" height="15.065" transform="translate(983.318 560.335) rotate(90)" fill="#b68b2d"/>
    <rect width="11.85" height="15.065" transform="translate(983.318 625.372) rotate(90)" fill="#b68b2d"/>
    <rect width="11.85" height="15.065" transform="translate(983.318 690.393) rotate(90)" fill="#b68b2d"/>
    <rect width="11.85" height="15.065" transform="translate(983.318 755.413) rotate(90)" fill="#b68b2d"/>
    <rect width="11.85" height="15.065" transform="translate(983.318 820.433) rotate(90)" fill="#b68b2d"/>
    <rect width="11.85" height="15.065" transform="translate(983.318 885.479) rotate(90)" fill="#b68b2d"/>
    <rect width="11.85" height="15.065" transform="translate(983.318 950.517) rotate(90)" fill="#b68b2d"/>
    <rect width="11.85" height="15.065" transform="translate(983.318 1015.533) rotate(90)" fill="#b68b2d"/>
    <rect width="11.85" height="15.065" transform="translate(983.318 1080.569) rotate(90)" fill="#b68b2d"/>
    <rect width="11.85" height="15.065" transform="translate(983.318 1145.58) rotate(90)" fill="#b68b2d"/>
    <text transform="translate(457.875 1167.168) rotate(-90)" fill="#fff" font-size="22" font-family="-webkit-pictograph">Vin</text>
    <text transform="translate(457.875 1109.363) rotate(-90)" fill="#fff" font-size="22" font-family="-webkit-pictograph">GND</text>
    <text transform="translate(457.875 1042.337) rotate(-90)" fill="#fff" font-size="22" font-family="-webkit-pictograph">RST</text>
    <text transform="translate(457.875 971.985) rotate(-90)" fill="#fff" font-size="22" font-family="-webkit-pictograph">EN</text>
    <text transform="translate(457.875 912.659) rotate(-90)" fill="#fff" font-size="22" font-family="-webkit-pictograph">3V3</text>
    <text transform="translate(457.875 851.053) rotate(-90)" fill="#fff" font-size="22" font-family="-webkit-pictograph">GND</text>
    <text transform="translate(457.875 784.219) rotate(-90)" fill="#fff" font-size="22" font-family="-webkit-pictograph">CLK</text>
    <text transform="translate(457.875 718.096) rotate(-90)" fill="#fff" font-size="22" font-family="-webkit-pictograph">SD0</text>
    <text transform="translate(457.875 657.771) rotate(-90)" fill="#fff" font-size="22" font-family="-webkit-pictograph">CMD</text>
    <text transform="translate(457.875 586.422) rotate(-90)" fill="#fff" font-size="22" font-family="-webkit-pictograph">SD1</text>
    <text transform="translate(457.875 525.102) rotate(-90)" fill="#fff" font-size="22" font-family="-webkit-pictograph">SD2</text>
    <text transform="translate(457.875 458.171) rotate(-90)" fill="#fff" font-size="22" font-family="-webkit-pictograph">SD3</text>
    <text transform="translate(457.875 394.044) rotate(-90)" fill="#fff" font-size="22" font-family="-webkit-pictograph">RSV</text>
    <text transform="translate(457.875 328.919) rotate(-90)" fill="#fff" font-size="22" font-family="-webkit-pictograph">RSV</text>
    <text transform="translate(457.875 257.656) rotate(-90)" fill="#fff" font-size="22" font-family="-webkit-pictograph">A0</text>
    <rect width="156.548" height="197.192" transform="translate(781.596 1200.728) rotate(90)" fill="#bec0c2"/>
    <rect width="70.745" height="72.256" transform="translate(885.46 1199.184) rotate(90)" fill="#bec0c2"/>
    <circle cx="24.836" cy="24.836" r="24.836" transform="translate(873.413 1209.76) rotate(90)" fill="#231f20"/>
    <rect width="70.745" height="72.256" transform="translate(553.1 1199.184) rotate(90)" fill="#bec0c2"/>
    <circle cx="24.836" cy="24.836" r="24.836" transform="translate(541.053 1209.76) rotate(90)" fill="#231f20"/>
    <text transform="translate(808.017 1188.023)" fill="#fff" font-size="24" font-family="-webkit-pictograph">FLASH</text>
    <text transform="translate(496.197 1191.773)" fill="#fff" font-size="24" font-family="-webkit-pictograph">RST</text>
    <rect width="573.299" height="407.116" transform="translate(892.231 82.143) rotate(90)" fill="#1a1a1a"/>
    <rect width="11.375" height="102.598" transform="translate(840.891 95.752) rotate(90)" fill="#b68b2d"/>
    <rect width="96.225" height="10.126" transform="translate(748.407 96.672) rotate(90)" fill="#b68b2d"/>
    <rect width="96.225" height="10.126" transform="translate(715.432 96.672) rotate(90)" fill="#b68b2d"/>
    <rect width="96.225" height="10.126" transform="translate(682.438 96.672) rotate(90)" fill="#b68b2d"/>
    <rect width="96.225" height="10.126" transform="translate(649.456 96.672) rotate(90)" fill="#b68b2d"/>
    <rect width="96.225" height="10.126" transform="translate(616.461 96.672) rotate(90)" fill="#b68b2d"/>
    <rect width="96.225" height="10.126" transform="translate(583.486 96.672) rotate(90)" fill="#b68b2d"/>
    <rect width="11.375" height="43.115" transform="translate(748.407 181.526) rotate(90)" fill="#b68b2d"/>
    <rect width="11.375" height="36.135" transform="translate(708.45 96.672) rotate(90)" fill="#b68b2d"/>
    <rect width="11.375" height="43.115" transform="translate(682.438 181.526) rotate(90)" fill="#b68b2d"/>
    <rect width="11.375" height="43.141" transform="translate(649.456 96.672) rotate(90)" fill="#b68b2d"/>
    <rect width="11.375" height="43.115" transform="translate(616.461 181.526) rotate(90)" fill="#b68b2d"/>
    <rect width="11.375" height="51.949" transform="translate(583.893 97.811) rotate(90)" fill="#b68b2d"/>
    <rect width="161.101" height="10.126" transform="translate(542.067 101.441) rotate(90)" fill="#b68b2d"/>
    <rect width="11.375" height="210.779" transform="translate(743.349 218.285) rotate(90)" fill="#b68b2d"/>
    <path d="M576.008,207.952a9.875,9.875,0,1,1,0-19.75v-6.117h-39.74V214.06h39.74Zm-33.361-9.875a4.7,4.7,0,1,1-.01,0Z" transform="translate(1011.192 79.738) rotate(90)" fill="#fca"/>
    <path d="M576.008,259.568a9.875,9.875,0,1,1,0-19.75v-6.11h-39.74V265.68h39.74Zm-33.363-9.875a9.875,9.875,0,1,1,2.895,6.987A9.875,9.875,0,0,1,542.646,249.693Z" transform="translate(1011.192 79.738) rotate(90)" fill="#fca"/>
    <path d="M576.008,311.2a9.875,9.875,0,1,1,0-19.75V285.34h-39.74v31.973h39.74Zm-33.363-9.875a9.875,9.875,0,1,1,2.895,6.987,9.875,9.875,0,0,1-2.895-6.987Z" transform="translate(1011.192 79.738) rotate(90)" fill="#fca"/>
    <path d="M576.008,362.819a9.875,9.875,0,1,1,0-19.75v-6.117h-39.74v31.972h39.74Zm-33.363-9.875a9.875,9.875,0,1,1,2.895,6.987A9.875,9.875,0,0,1,542.646,352.944Z" transform="translate(1011.192 79.738) rotate(90)" fill="#fca"/>
    <path d="M576.008,414.443a9.875,9.875,0,1,1,0-19.75v-6.108h-39.74v31.965h39.74Zm-33.363-9.873a9.875,9.875,0,1,1,2.895,6.987,9.875,9.875,0,0,1-2.895-6.987Z" transform="translate(1011.192 79.738) rotate(90)" fill="#fca"/>
    <path d="M576.008,466.065a9.875,9.875,0,1,1,0-19.75v-6.109h-39.74v31.973h39.74Zm-33.363-9.875a9.875,9.875,0,1,1,2.895,6.987A9.875,9.875,0,0,1,542.646,456.19Z" transform="translate(1011.192 79.738) rotate(90)" fill="#fca"/>
    <rect width="375.244" height="312.072" transform="translate(842.452 261.357) rotate(90)" fill="#333"/>
    <text transform="translate(699.64 448.012) rotate(90)" fill="#e0e0e0" font-size="27" font-family="-webkit-pictograph">ESP8266MOD<tspan x="0" y="33">AI/THINKER</tspan><tspan x="0" y="66">ISM 2.4GHz</tspan><tspan x="0" y="99">PA +25dBm</tspan><tspan x="0" y="132">802.11b/g/n</tspan></text>
    <rect width="125.129" height="54.273" transform="translate(724.866 294.797) rotate(90)" fill="none"/>
    <text transform="translate(708.232 293.793) rotate(90)" fill="#e0e0e0" font-size="27" font-family="-webkit-pictograph">MODEL<tspan x="0" y="33">VENDOR</tspan></text>
    <rect width="15.08" height="78.78" transform="translate(645.337 293.286) rotate(90)" fill="#e0e0e0"/>
    <rect width="38.3" height="15.08" transform="translate(660.413 308.366) rotate(90)" fill="#e0e0e0"/>
    <rect width="37.693" height="13.334" transform="translate(618.007 300.83) rotate(90)" fill="#e0e0e0"/>
    <path d="M335.764,420.493a32.488,32.488,0,1,1,0-39.018h18.409a48.4,48.4,0,1,0,0,39.03H335.754Z" transform="translate(1011.192 79.738) rotate(90)" fill="#e0e0e0"/>
    <path d="M320.306,409.91a14.011,14.011,0,1,1,0-17.847h17.223a29.49,29.49,0,1,0,0,17.862H320.306Z" transform="translate(1011.192 79.738) rotate(90)" fill="#e0e0e0"/>
    <path d="M243.708,365.854a15.08,15.08,0,1,0-15.075,15.073l0-15.073Z" transform="translate(1011.192 79.738) rotate(90)" fill="#e0e0e0"/>
    <path d="M450.806,177.8a7.025,7.025,0,1,1-7.02-6.9,7.025,7.025,0,0,1,7.02,6.9Z" transform="translate(318.374 136.475)" fill="#b3b3b3"/>
    <path d="M441.775,239.647c-17.9-16.969-18.546-47.624-.5-64.474,22.821-22.272,47.657-15.441,64.975-.5l-3.261,4.015c-23.158-23.03-49.649-9.69-58.7,0-12.178,14.21-18.934,36.443.241,57.448Z" transform="translate(312.102 131.96)" fill="#b3b3b3"/>
    <path d="M440.276,192.477c15.824,4.311,24.582-1.183,19.565-18.815,8.278-8.307,19.073-7.392,31.358-1,2.854,16.87-2,29.131-11.038,38.886-11.08,10.959-24.567,14.773-40.138,12.284-4.155-4.492-3.767-8.851-1-12.543a35.5,35.5,0,0,0,31.843-7.763,33.673,33.673,0,0,0,7.021-31.358,11.749,11.749,0,0,0-5.781.241c4.453,10.131,1.577,18.7-3.261,26.843-8.591,9.234-20.1,10.147-33.365,6.021a19.243,19.243,0,0,1,4.766-12.8Z" transform="translate(312.102 131.96)" fill="#b3b3b3"/>
    <path d="M496.209,181.691c7.416-2.782,10.627.978,12.042,7.526-6.819,37.373-28.385,46.436-51.677,52.181-7.395-2.346-9.829-6.6-8.531-12.284,38.714-6.33,45.761-25.9,48.17-47.414Z" transform="translate(312.102 131.96)" fill="#b3b3b3"/>
    <path d="M469.872,242.9c18.7-7.536,34.271-18.351,39.628-39.887.665-1.3,3.035-1.274,3.011,2.006-1.376,27.7-15.939,40.367-41.392,40.642-2.31-.663-1.383-1.766-1.255-2.76Z" transform="translate(312.102 131.96)" fill="#b3b3b3"/>
    <rect width="19.509" height="35.766" transform="translate(759.125 795.909) rotate(90)" fill="#8c8c8c"/>
    <rect width="19.509" height="35.766" transform="translate(759.125 832.892) rotate(90)" fill="#8c8c8c"/>
    <rect width="19.509" height="35.766" transform="translate(759.125 869.88) rotate(90)" fill="#8c8c8c"/>
    <rect width="57.604" height="35.202" transform="translate(858.017 813.846) rotate(90)" fill="#8c8c8c"/>
    <rect width="108.111" height="56.087" transform="translate(818.732 788.592) rotate(90)" fill="#303030"/>
    <path d="M104.048,43.354H4.066L0,39.285H108.111Z" transform="translate(858.017 788.592) rotate(90)" fill="#1f1f1f"/>
    <path d="M104.048,91.307H4.066L0,95.377H108.111Z" transform="translate(858.017 788.592) rotate(90)" fill="#1f1f1f"/>
    <path d="M4.066,91.307V43.354L0,39.285V95.377Z" transform="translate(858.017 788.592) rotate(90)"/>
    <path d="M104.048,91.307V43.354l4.066-4.063V95.377Z" transform="translate(858.017 788.592) rotate(90)" fill="#3d3d3d"/>
    <circle cx="4.066" cy="4.066" r="4.066" transform="translate(778.902 796.721) rotate(90)" fill="#1f1f1f"/>
    <rect width="119.349" height="33.869" transform="translate(557.216 757.369) rotate(90)" fill="#e9c2c2"/>
    <rect width="93.544" height="69.351" transform="translate(574.964 770.273) rotate(90)" fill="#e9e803"/>
    <rect width="20.966" height="69.351" transform="translate(574.956 842.851) rotate(90)" fill="#fd8a25"/>
    <rect width="62.327" height="17.688" transform="translate(628.688 834.379) rotate(90)" fill="#e9c2c2"/>
    <rect width="48.852" height="22.242" transform="translate(630.969 841.115) rotate(90)" fill="#e9e803"/>
    <rect width="10.949" height="22.242" transform="translate(630.969 879.018) rotate(90)" fill="#fd8a25"/>
    <rect width="176.631" height="79.288" rx="27.56" transform="translate(824.602 435.651) rotate(90)" fill="#b3b3b3"/>
    <path d="M382.337,231.335c-.291-.867-8.81-37.963-8.81-38.363,0-.315,1.284-.414,5.313-.414a28.691,28.691,0,0,1,5.31.241c0,.421,3,20.119,3.2,21.005.179.771.208.783.431.166.133-.366,1.2-5.337,2.373-11.05l2.131-10.381,4.8.089,4.8.089,2.168,10.518c1.2,5.781,2.266,10.6,2.377,10.721.268.268.318-.024,1.982-11.358l1.421-9.713h5.249a32.995,32.995,0,0,1,5.249.212c0,.241-8.577,37.166-8.839,38.054-.152.52-.694.58-5.109.58s-4.954-.06-5.109-.58c-.094-.32-1.079-5.354-2.187-11.185s-2.081-10.672-2.168-10.752c-.261-.261-.416.45-2.577,11.561l-2.1,10.793-4.891.089c-3.738.07-4.925,0-5.034-.332h0Z" transform="translate(998.352 73.311) rotate(90)" fill="#4d4d4d"/>
    <path d="M425.994,217.624v-14.1h9.3v28.223h-9.3Z" transform="translate(998.352 73.311) rotate(90)" fill="#4d4d4d"/>
    <path d="M428.752,199.839a7.055,7.055,0,0,1-2.211-1.413,4.093,4.093,0,0,1,.807-6.763,5.029,5.029,0,0,1,3.43-.934c7.659-.022,8.162,8.837.532,9.335a8.715,8.715,0,0,1-2.555-.227Z" transform="translate(998.352 73.311) rotate(90)" fill="#4d4d4d"/>
    <path d="M442.668,244.083a32.77,32.77,0,0,0,7.927-12.842c.742-2.247.774-2.82.963-17.433.212-16.239.186-15.99,2.076-19.749a34.11,34.11,0,0,1,6.18-7.878,23.681,23.681,0,0,1,8.353-5.3l2.168-.776h20.586c22.659,0,22.322-.027,26.9,2.119a24.914,24.914,0,0,1,12.618,15.4,228.452,228.452,0,0,1,0,31.643,24.912,24.912,0,0,1-11.849,14.822c-4.651,2.779-1.708,2.6-42.34,2.6H440.184l2.484-2.6Zm72.978-26.46V203.172h-9.959v28.9h9.971Zm-39.506,8.3v-5.8h20.92v-9.294h-20.92v-8.964h23.577v-9.634H464.742l.217,5.54c.121,3.042.22,11.934.22,19.749v14.227h10.962Zm37.282-25.747a4.831,4.831,0,0,0,2.63-7.808,6.987,6.987,0,0,0-10.116.169,4.21,4.21,0,0,0,.227,6.106,7.426,7.426,0,0,0,7.264,1.532Z" transform="translate(998.352 73.311) rotate(90)" fill="#4d4d4d"/>
    <rect width="9.219" height="16.9" transform="translate(832.299 1063.774) rotate(180)" fill="#8c8c8c"/>
    <rect width="9.219" height="16.9" transform="translate(802.332 1063.774) rotate(180)" fill="#8c8c8c"/>
    <rect width="27.221" height="16.636" transform="translate(826.815 1105.515) rotate(180)" fill="#8c8c8c"/>
    <rect width="51.09" height="26.506" transform="translate(838.75 1091.942) rotate(180)" fill="#303030"/>
    <path d="M0,18.566H51.09l-1.927,1.927H1.927Z" transform="translate(838.75 1110.506) rotate(180)" fill="#1f1f1f"/>
    <path d="M0,45.068H51.09l-1.927-1.927H1.927Z" transform="translate(838.75 1110.506) rotate(180)" fill="#1f1f1f"/>
    <path d="M0,18.566V45.059l1.927-1.927V20.489Z" transform="translate(838.75 1110.506) rotate(180)"/>
    <path d="M51.09,18.566V45.059l-1.927-1.927V20.489Z" transform="translate(838.75 1110.506) rotate(180)" fill="#3d3d3d"/>
    <path d="M552.567,122.425a9.875,9.875,0,0,1-19.75,0h-6.108v39.74h31.973v-39.74Zm-9.875,33.361a9.875,9.875,0,1,1,6.987-2.895,9.875,9.875,0,0,1-6.987,2.895Z" transform="translate(1011.192 79.738) rotate(90)" fill="#fca"/>
    <path d="M208.411,122.422a9.875,9.875,0,1,1-19.75,0h-6.112v39.74h31.973v-39.74h-6.108Zm-9.875,33.363a9.875,9.875,0,1,1,6.987-2.895,9.875,9.875,0,0,1-6.987,2.895Z" transform="translate(1011.192 79.738) rotate(90)" fill="#fca"/>
    <path d="M454.246,122.422a9.875,9.875,0,1,1-19.75,0h-6.107v39.74h31.973v-39.74h-6.115Zm-9.875,33.363a9.875,9.875,0,1,1,6.987-2.895,9.875,9.875,0,0,1-6.987,2.895Z" transform="translate(1011.192 79.738) rotate(90)" fill="#fca"/>
    <path d="M503.4,122.425a9.875,9.875,0,0,1-19.75,0h-6.108v39.74h31.973v-39.74Zm-9.875,33.361a9.875,9.875,0,1,1,6.987-2.895,9.875,9.875,0,0,1-6.987,2.895Z" transform="translate(1011.192 79.738) rotate(90)" fill="#fca"/>
    <path d="M405.069,122.425a9.875,9.875,0,1,1-19.75,0h-6.1v39.74h31.973v-39.74Zm-9.875,33.361a9.875,9.875,0,1,1,6.987-2.895,9.875,9.875,0,0,1-6.987,2.895Z" transform="translate(1011.192 79.738) rotate(90)" fill="#fca"/>
    <path d="M355.909,122.425a9.875,9.875,0,1,1-19.75,0h-6.107v39.74h31.973v-39.74Zm-9.875,33.361a9.875,9.875,0,1,1,6.987-2.895,9.875,9.875,0,0,1-6.987,2.895Z" transform="translate(1011.192 79.738) rotate(90)" fill="#fca"/>
    <path d="M306.746,122.425a9.875,9.875,0,1,1-19.75,0h-6.107v39.74h31.973v-39.74Zm-9.882,33.36a9.875,9.875,0,1,1,6.987-2.895,9.875,9.875,0,0,1-6.987,2.895Z" transform="translate(1011.192 79.738) rotate(90)" fill="#fca"/>
    <path d="M257.579,122.425a9.875,9.875,0,1,1-19.75,0h-6.114v39.74h31.973v-39.74ZM247.7,155.786a9.875,9.875,0,1,1,6.987-2.895,9.875,9.875,0,0,1-6.987,2.895Z" transform="translate(1011.192 79.738) rotate(90)" fill="#fca"/>
    <path d="M531.3,526.05a9.875,9.875,0,1,1,19.75,0h6.109V486.305H525.2V526.05Zm9.875-33.363a9.875,9.875,0,1,1-6.987,2.895,9.875,9.875,0,0,1,6.987-2.895Z" transform="translate(1011.192 79.738) rotate(90)" fill="#fca"/>
    <path d="M187.141,526.05a9.875,9.875,0,1,1,19.75,0h6.117V486.305H181.036V526.05Zm9.875-33.363a9.875,9.875,0,1,1-6.987,2.895A9.875,9.875,0,0,1,197.016,492.688Z" transform="translate(1011.192 79.738) rotate(90)" fill="#fca"/>
    <path d="M432.97,526.05a9.875,9.875,0,1,1,19.75,0h6.107V486.305H426.862V526.05Zm9.875-33.363a9.875,9.875,0,1,1-6.987,2.895,9.875,9.875,0,0,1,6.987-2.895Z" transform="translate(1011.192 79.738) rotate(90)" fill="#fca"/>
    <path d="M482.137,526.05a9.875,9.875,0,1,1,19.75,0h6.107V486.305H476.029V526.05Zm9.875-33.363a9.875,9.875,0,1,1-6.987,2.895A9.875,9.875,0,0,1,492.012,492.688Z" transform="translate(1011.192 79.738) rotate(90)" fill="#fca"/>
    <path d="M383.807,526.05a9.875,9.875,0,1,1,19.75,0h6.1V486.305H377.7V526.05Zm9.875-33.363a9.875,9.875,0,1,1-6.987,2.895,9.875,9.875,0,0,1,6.987-2.895Z" transform="translate(1011.192 79.738) rotate(90)" fill="#fca"/>
    <path d="M334.641,526.05a9.875,9.875,0,1,1,19.75,0H360.5V486.305H328.521V526.05Zm9.875-33.363a9.882,9.882,0,1,1-6.987,2.895A9.882,9.882,0,0,1,344.516,492.688Z" transform="translate(1011.192 79.738) rotate(90)" fill="#fca"/>
    <path d="M285.477,526.05a9.875,9.875,0,1,1,19.75,0h6.111V486.305H279.369V526.05Zm9.875-33.363a9.875,9.875,0,1,1-6.987,2.895,9.875,9.875,0,0,1,6.987-2.895Z" transform="translate(1011.192 79.738) rotate(90)" fill="#fca"/>
    <path d="M236.311,526.05a9.875,9.875,0,1,1,19.75,0h6.107V486.305H230.2V526.05Zm9.875-33.363a9.875,9.875,0,1,1-6.987,2.895A9.875,9.875,0,0,1,246.187,492.688Z" transform="translate(1011.192 79.738) rotate(90)" fill="#fca"/>
    <rect width="36.667" height="18.861" transform="translate(864.117 233.664) rotate(180)" fill="#8c8c8c"/>
    <rect width="18.247" height="15.966" transform="translate(853.764 215.11) rotate(90)" fill="#f9f9f9" stroke="#1a1a1a" stroke-width="0.998"/>
    <rect width="18.966" height="36.933" transform="translate(851.843 692.477) rotate(90)" fill="#8c8c8c"/>
    <rect width="18.966" height="19.964" transform="translate(842.859 692.477) rotate(90)" fill="#fdc325"/>
    <rect width="26.951" height="47.914"  transform="translate(857.832 688.484) rotate(90)" fill="none" stroke="#fff" stroke-width="0.998"/>
    <rect width="18.966" height="36.933" transform="translate(528.068 730.074) rotate(180)" fill="#8c8c8c"/>
    <rect width="18.966" height="19.964" transform="translate(528.068 721.09) rotate(180)" fill="#fdc325"/>
    <rect width="26.951" height="47.914"  transform="translate(532.061 736.063) rotate(180)" fill="none" stroke="#fff" stroke-width="0.998"/>
    <rect width="18.966" height="36.933" transform="translate(590.277 729.943) rotate(180)" fill="#8c8c8c"/>
    <rect width="18.966" height="19.964" transform="translate(590.277 720.959) rotate(180)" fill="#fdc325"/>
    <rect width="26.951" height="47.914"  transform="translate(594.27 735.932) rotate(180)" fill="none" stroke="#fff" stroke-width="0.998"/>
    <rect width="24.955" height="5.989" transform="translate(736.052 690.48) rotate(90)" fill="#8c8c8c"/>
    <rect width="24.955" height="5.989" transform="translate(724.073 690.48) rotate(90)" fill="#8c8c8c"/>
    <rect width="24.955" height="5.989" transform="translate(712.095 690.48) rotate(90)" fill="#8c8c8c"/>
    <rect width="24.955" height="5.989" transform="translate(700.117 690.48) rotate(90)" fill="#8c8c8c"/>
    <rect width="24.955" height="5.989" transform="translate(688.138 690.48) rotate(90)" fill="#8c8c8c"/>
    <rect width="15.971" height="53.903" transform="translate(736.052 695.471) rotate(90)" fill="#303030"/>
    <rect width="18.966" height="36.933" transform="translate(528.384 974.885) rotate(180)" fill="#8c8c8c"/>
    <rect width="18.966" height="19.964" transform="translate(528.384 965.901) rotate(180)" fill="#fdc325"/>
    <rect width="26.951" height="47.914"  transform="translate(532.377 980.874) rotate(180)" fill="none" stroke="#fff" stroke-width="0.998"/>
    <rect width="18.966" height="36.933" transform="translate(671.169 974.885) rotate(180)" fill="#8c8c8c"/>
    <rect width="18.966" height="19.964" transform="translate(671.169 965.901) rotate(180)" fill="#fdc325"/>
    <rect width="26.951" height="47.914"  transform="translate(675.162 980.874) rotate(180)" fill="none" stroke="#fff" stroke-width="0.998"/>
    <rect width="7.986" height="7.986" transform="translate(563.364 968.978) rotate(90)" fill="#bec0c2"/>
    <rect width="7.986" height="7.986" transform="translate(619.263 968.978) rotate(90)" fill="#bec0c2"/>
    <rect width="7.986" height="7.986" transform="translate(619.263 933.043) rotate(90)" fill="#bec0c2" opacity="0.8"/>
    <rect width="7.986" height="7.986" transform="translate(563.364 933.043) rotate(90)" fill="#bec0c2"/>
    <rect width="35.935" height="55.899" rx="3.993"  transform="translate(615.27 937.035) rotate(90)" fill="#bec0c2" stroke="#b68b2d" stroke-width="3.993"/>
    <rect width="9.219" height="16.9" transform="translate(832.299 991.603) rotate(180)" fill="#8c8c8c"/>
    <rect width="9.219" height="16.9" transform="translate(802.332 991.603) rotate(180)" fill="#8c8c8c"/>
    <rect width="27.221" height="16.636" transform="translate(826.815 949.597) rotate(180)" fill="#8c8c8c"/>
    <rect width="51.09" height="26.506" transform="translate(838.75 973.04) rotate(180)" fill="#303030"/>
    <path d="M0,1.927H51.09L49.162,0H1.927Z" transform="translate(838.75 948.462) rotate(180)" fill="#1f1f1f"/>
    <path d="M0,0H51.09L49.163,1.927H1.927Z" transform="translate(838.75 973.038) rotate(180)" fill="#1f1f1f"/>
    <path d="M0,26.493V0L1.927,1.927V24.57Z" transform="translate(838.75 973.028) rotate(180)"/>
    <path d="M1.927,26.493V0L0,1.927V24.57Z" transform="translate(789.587 973.028) rotate(180)" fill="#3d3d3d"/>
    <rect width="24.955" height="5.989" transform="translate(758.012 944.023) rotate(90)" fill="#8c8c8c"/>
    <rect width="24.955" height="5.989" transform="translate(746.034 944.023) rotate(90)" fill="#8c8c8c"/>
    <rect width="24.955" height="5.989" transform="translate(734.055 944.023) rotate(90)" fill="#8c8c8c"/>
    <rect width="24.955" height="5.989" transform="translate(722.077 944.023) rotate(90)" fill="#8c8c8c"/>
    <rect width="24.955" height="5.989" transform="translate(710.099 944.023) rotate(90)" fill="#8c8c8c"/>
    <rect width="15.971" height="53.903" transform="translate(758.012 949.014) rotate(90)" fill="#303030"/>
    <rect width="24.955" height="5.989" transform="translate(838.866 1006.909) rotate(90)" fill="#8c8c8c"/>
    <rect width="24.955" height="5.989" transform="translate(826.888 1006.909) rotate(90)" fill="#8c8c8c"/>
    <rect width="24.955" height="5.989" transform="translate(814.91 1006.909) rotate(90)" fill="#8c8c8c"/>
    <rect width="24.955" height="5.989" transform="translate(802.931 1006.909) rotate(90)" fill="#8c8c8c"/>
    <rect width="24.955" height="5.989" transform="translate(790.953 1006.909) rotate(90)" fill="#8c8c8c"/>
    <rect width="15.971" height="53.903" transform="translate(838.866 1011.9) rotate(90)" fill="#303030"/>
    <rect width="18.966" height="36.933" transform="translate(765 1112.718) rotate(90)" fill="#8c8c8c"/>
    <rect width="18.966" height="19.964" transform="translate(756.016 1112.718) rotate(90)" fill="#fdc325"/>
    <rect width="26.951" height="47.914"  transform="translate(770.989 1108.725) rotate(90)" fill="none" stroke="#fff" stroke-width="0.998"/>
    <rect width="18.966" height="36.933" transform="translate(765 1145.659) rotate(90)" fill="#8c8c8c"/>
    <rect width="18.966" height="19.964" transform="translate(756.016 1145.659) rotate(90)" fill="#fdc325"/>
    <rect width="26.951" height="47.914"  transform="translate(770.989 1141.666) rotate(90)" fill="none" stroke="#fff" stroke-width="0.998"/>
    <rect width="99.82" height="9.982" transform="translate(664.182 1020.884) rotate(90)" fill="#8c8c8c"/>
    <rect width="99.82" height="9.982" transform="translate(643.219 1020.884) rotate(90)" fill="#8c8c8c"/>
    <rect width="99.82" height="9.982" transform="translate(622.257 1020.884) rotate(90)" fill="#8c8c8c"/>
    <rect width="99.82" height="9.982" transform="translate(601.295 1020.884) rotate(90)" fill="#8c8c8c"/>
    <rect width="99.82" height="9.982" transform="translate(580.333 1020.884) rotate(90)" fill="#8c8c8c"/>
    <rect width="99.82" height="9.982" transform="translate(559.371 1020.884) rotate(90)" fill="#8c8c8c"/>
    <rect width="99.82" height="9.982" transform="translate(538.409 1020.884) rotate(90)" fill="#8c8c8c"/>
    <rect width="99.82" height="9.982" transform="translate(517.446 1020.884) rotate(90)" fill="#8c8c8c"/>
    <rect width="63.885" height="154.721"  transform="translate(664.182 1039.85) rotate(90)" fill="#303030" stroke="#707070" stroke-width="0.998"/>
    <circle cx="4.991" cy="4.991" r="4.991" transform="translate(652.203 1050.83) rotate(90)" fill="#1f1f1f"/>
    <rect width="63.885" height="7.986" transform="translate(664.182 1039.85) rotate(90)" fill="#181818"/>
    <rect width="63.885" height="7.986" transform="translate(515.45 1039.85) rotate(90)" fill="#3d3d3d"/>
    <path d="M0,0,7.986,7.456h0V149.548h0L0,156.717Z" transform="translate(664.182 1039.85) rotate(90)" fill="#1f1f1f"/>
    <path d="M0,7.252,7.986,0V156.717h0L0,149.262Z" transform="translate(664.182 1095.749) rotate(90)" fill="#1f1f1f"/>
    <text transform="translate(583.827 1178.1)" fill="#fff" font-size="28" font-family="-webkit-pictograph" letter-spacing="0.06em">LoLin</text>
  </g>
</svg>